<?xml version="1.0" encoding="UTF-8"?>
<svg width="16px" height="16px" viewBox="0 0 16 16" version="1.1" xmlns="http://www.w3.org/2000/svg" xmlns:xlink="http://www.w3.org/1999/xlink">
    <title>选中</title>
    <g id="1103更新-FLASH-POOL" stroke="none" stroke-width="1" fill="none" fill-rule="evenodd">
        <g id="锁wing-flash-pool" transform="translate(-765.000000, -1286.000000)" fill-rule="nonzero">
            <g id="编组-2备份-3" transform="translate(735.000000, 548.000000)">
                <g id="选中" transform="translate(30.000000, 738.000000)">
                    <path d="M8.10827585,0.000502744213 C5.22231951,-0.0317081047 2.54166267,1.48590354 1.089284,3.97419441 C-0.363094667,6.46248528 -0.363094667,9.53751472 1.089284,12.0258056 C2.54166267,14.5140965 5.22231951,16.0317081 8.10827585,15.9994973 C12.4868051,15.9303817 16,12.3694318 16,8.00050056 C16,3.63156935 12.4868051,0.0706194654 8.10827585,0.00150387021 L8.10827585,0.000502744213 Z" id="形状" fill="#00AF7C"></path>
                    <path d="M11.5874189,6.37202156 L7.68551514,10.2664467 C7.4696607,10.480579 7.12098883,10.480579 6.90513438,10.2664467 L4.56399211,7.92994781 C4.42445068,7.7908692 4.36987896,7.58808328 4.42083357,7.39797755 C4.47178819,7.20787183 4.62052792,7.05932787 4.81102396,7.00830076 C5.00151999,6.95727365 5.20483145,7.01151561 5.34437287,7.15059423 L7.29571613,9.09741635 L10.8078209,5.5934489 C11.0233171,5.37866764 11.3725303,5.37884245 11.5878103,5.59383936 C11.8030904,5.80883626 11.8029151,6.1572403 11.5874189,6.37202156 L11.5874189,6.37202156 Z" id="路径" fill="#FFFFFF"></path>
                </g>
            </g>
        </g>
    </g>
</svg>