<?xml version="1.0" encoding="UTF-8"?>
<svg width="12px" height="12px" viewBox="0 0 12 12" version="1.1" xmlns="http://www.w3.org/2000/svg" xmlns:xlink="http://www.w3.org/1999/xlink">
    <title>copy</title>
    <g id="Page-1" stroke="none" stroke-width="1" fill="none" fill-rule="evenodd" opacity="0.599379">
        <g id="flash-pool-supply-退出登录" transform="translate(-860.000000, -517.000000)" fill="#00AF7C" fill-rule="nonzero">
            <g id="编组-2" transform="translate(735.000000, 351.000000)">
                <g id="1备份" transform="translate(30.000000, 116.000000)">
                    <g id="copy" transform="translate(95.000000, 50.000000)">
                        <path d="M11.8185983,9.36042794 L10.8337635,9.36042794 L10.8337635,2.4662214 C10.8337635,1.67838255 10.1443259,0.988969145 9.35639031,0.988969145 L2.46220798,0.988969145 L2.46220798,0.00401341836 L9.35639031,0.00401341836 C10.7352414,0.00401341836 11.8185983,1.08737043 11.8185983,2.4662214 L11.8185983,9.36042794 Z" id="Fill-1"></path>
                        <path d="M8.3715555,11.8226118 L1.47734897,11.8226118 C0.689437578,11.8226118 0,11.133295 0,10.3453595 L0,3.45117713 C0,2.66324156 0.689437578,1.97380398 1.47734897,1.97380398 L8.3715555,1.97380398 C9.15939436,1.97380398 9.84880772,2.66324156 9.84880772,3.45117713 L9.84880772,10.3453595 C9.84880772,11.1331984 9.15939436,11.8226118 8.3715555,11.8226118 Z M1.47734897,2.95873554 C1.18185499,2.95873554 0.98483484,3.15575569 0.98483484,3.45117713 L0.98483484,10.3453595 C0.98483484,10.6408776 1.18185499,10.8377769 1.47734897,10.8377769 L8.3715555,10.8377769 C8.66697694,10.8377769 8.86397292,10.6408776 8.86397292,10.3453595 L8.86397292,3.45117713 C8.86397292,3.15565898 8.66697694,2.95873554 8.3715555,2.95873554 L1.47734897,2.95873554 Z" id="Fill-3"></path>
                    </g>
                </g>
            </g>
        </g>
    </g>
</svg>