<?xml version="1.0" encoding="UTF-8"?>
<svg width="24px" height="24px" viewBox="0 0 24 24" version="1.1" xmlns="http://www.w3.org/2000/svg" xmlns:xlink="http://www.w3.org/1999/xlink">
    <title>编组</title>
    <g id="更新-FLASH-POOL" stroke="none" stroke-width="1" fill="none" fill-rule="evenodd">
        <g id="flash-pool-弹窗" transform="translate(-1188.000000, -613.000000)" fill="#C93E6C">
            <g id="编组-2" transform="translate(792.000000, 373.000000)">
                <g id="编组-15备份-3" transform="translate(30.000000, 240.000000)">
                    <g id="编组" transform="translate(366.000000, 0.000000)">
                        <path d="M12.1624138,0.00075411632 C7.83347927,-0.0475621571 3.81249401,2.22885531 1.633926,5.96129161 C-0.544642001,9.69372791 -0.544642001,14.3062721 1.633926,18.0387084 C3.81249401,21.7711447 7.83347927,24.0475622 12.1624138,23.9992459 C18.7302077,23.8955725 24,18.5541477 24,12.0007508 C24,5.44735402 18.7302077,0.105929198 12.1624138,0.00225580531 L12.1624138,0.00075411632 Z" id="形状" fill-rule="nonzero" opacity="0.104068"></path>
                        <path d="M12,6 C12.4733869,6 12.8571429,6.38375593 12.8571429,6.85714286 L12.857,11.142 L17.1428571,11.1428571 C17.6162441,11.1428571 18,11.5266131 18,12 C18,12.4733869 17.6162441,12.8571429 17.1428571,12.8571429 L12.857,12.857 L12.8571429,17.1428571 C12.8571429,17.6162441 12.4733869,18 12,18 C11.5266131,18 11.1428571,17.6162441 11.1428571,17.1428571 L11.142,12.857 L6.85714286,12.8571429 C6.38375593,12.8571429 6,12.4733869 6,12 C6,11.5266131 6.38375593,11.1428571 6.85714286,11.1428571 L11.142,11.142 L11.1428571,6.85714286 C11.1428571,6.38375593 11.5266131,6 12,6 Z" id="形状结合" transform="translate(12.000000, 12.000000) rotate(45.000000) translate(-12.000000, -12.000000) "></path>
                    </g>
                </g>
            </g>
        </g>
    </g>
</svg>