<?xml version="1.0" encoding="UTF-8"?>
<svg width="19px" height="20px" viewBox="0 0 19 20" version="1.1" xmlns="http://www.w3.org/2000/svg" xmlns:xlink="http://www.w3.org/1999/xlink">
    <title>提醒</title>
    <g id="Page-1" stroke="none" stroke-width="1" fill="none" fill-rule="evenodd">
        <g id="Candidate-FlashPool-new" transform="translate(-339.000000, -99.000000)" fill="#00AF7C" fill-rule="nonzero">
            <g id="编组-9" transform="translate(320.000000, 80.000000)">
                <g id="提醒" transform="translate(18.998157, 19.000000)">
                    <path d="M9.10184287,0 C12.5596257,0 15.376945,2.74215011 15.497803,6.17045255 L15.5018429,6.399 C15.5018429,8.84942034 15.9181413,10.720076 16.6056311,12.0959632 L16.7297384,12.3336479 C17.11994,13.0490174 17.4833599,13.4579182 17.7009156,13.6275641 L17.7565431,13.6679497 C18.5468508,14.1948215 18.2203944,15.398517 17.3176485,15.4939696 L17.2018429,15.5 L1.00184287,15.5 C0.0520112286,15.5 -0.344050751,14.3173794 0.354131594,13.7372047 L0.447142673,13.6679497 C0.654470772,13.529731 1.04827287,13.114051 1.4739473,12.3336479 C2.19283989,11.0156781 2.64907678,9.20788083 2.69755097,6.82625981 L2.70184287,6.4 C2.70184287,2.8653776 5.56722047,0 9.10184287,0 Z M9.10184287,2 C6.67178997,2 4.70184287,3.9699471 4.70184287,6.4 C4.70184287,9.16536474 4.21199722,11.3519338 3.372813,13.0184115 L3.22973844,13.2913521 L3.11084287,13.5 L15.0918429,13.5 L14.9739473,13.2913521 C14.0963813,11.6824812 13.560348,9.55678026 13.5063544,6.85554497 L13.5018429,6.399 L13.496769,6.18681603 C13.3889354,3.92640966 11.5754332,2.11290746 9.31502684,2.00507391 L9.10184287,2 Z" id="路径"></path>
                    <path d="M9.73471644,17.6861909 L9.79384287,17.5982281 C10.0709638,17.1205018 10.6828884,16.9578791 11.1606147,17.235 C11.638341,17.5121209 11.8009638,18.1240456 11.5238429,18.6017719 C11.022926,19.4652979 10.1001389,19.9968107 9.10184287,19.9968107 C8.10354682,19.9968107 7.18075974,19.4652979 6.67984287,18.6017719 C6.40272192,18.1240456 6.5653447,17.5121209 7.04307101,17.235 C7.48667401,16.9776734 8.04598881,17.0995136 8.34550618,17.5007267 L8.40984287,17.5982281 C8.55296197,17.8449499 8.81661543,17.9968107 9.10184287,17.9968107 C9.35141688,17.9968107 9.58447331,17.8805422 9.73471644,17.6861909 Z" id="路径"></path>
                </g>
            </g>
        </g>
    </g>
</svg>