<?xml version="1.0" encoding="UTF-8"?>
<svg width="206px" height="37px" viewBox="0 0 206 37" version="1.1" xmlns="http://www.w3.org/2000/svg" xmlns:xlink="http://www.w3.org/1999/xlink">
    <title>flashpool(1)</title>
    <defs>
        <polygon id="path-1" points="0.000220689655 0.109469388 22.870069 0.109469388 22.870069 9.0410857 0.000220689655 9.0410857"></polygon>
        <polygon id="path-3" points="0.000220689655 0.45957551 22.870069 0.45957551 22.870069 9.39116733 0.000220689655 9.39116733"></polygon>
        <polygon id="path-5" points="0 0.353093878 12.1522759 0.353093878 12.1522759 12.4897959 0 12.4897959"></polygon>
    </defs>
    <g id="更新-FLASH-POOL" stroke="none" stroke-width="1" fill="none" fill-rule="evenodd">
        <g id="flash-pool-new" transform="translate(-855.000000, -182.000000)">
            <g id="flashpool(1)" transform="translate(855.000000, 182.000000)">
                <path d="M46.1105287,30.2899592 L46.1105287,19.4635102 L57.2332874,19.4635102 L57.2332874,15.8311837 L46.1105287,15.8311837 L46.1105287,9.0602449 L57.9394943,9.0602449 L57.9394943,5.42791837 L41.6261149,5.42791837 L41.6261149,30.2899592 L46.1105287,30.2899592 Z M65.6371494,30.2899592 L65.6371494,5.42791837 L61.2233563,5.42791837 L61.2233563,30.2899592 L65.6371494,30.2899592 Z M75.7005977,30.5720816 C76.8305287,30.5720816 77.8251034,30.3134694 78.6843218,29.7962449 C79.5435402,29.2790204 80.1732414,28.5619592 80.5734253,27.6450612 L80.5734253,27.6450612 L80.5734253,30.2899592 L84.7753563,30.2899592 L84.7753563,19.8161633 C84.7753563,17.371102 84.1868506,15.5608163 83.0098391,14.3853061 C81.8328276,13.2097959 80.032,12.6220408 77.6073563,12.6220408 C76.3832644,12.6220408 75.0885517,12.8218776 73.7232184,13.221551 C72.3578851,13.6212245 71.1926437,14.1266939 70.2274943,14.7379592 L70.2274943,14.7379592 L71.4633563,17.7707755 C72.4285057,17.2065306 73.4113103,16.7657143 74.4117701,16.4483265 C75.4122299,16.1309388 76.3714943,15.9722449 77.2895632,15.9722449 C78.4665747,15.9722449 79.3081379,16.2308571 79.8142529,16.7480816 C80.3203678,17.2653061 80.5734253,18.1116735 80.5734253,19.2871837 L80.5734253,19.2871837 L80.5734253,20.0982857 L79.6906667,20.0982857 C77.1247816,20.0982857 75.112092,20.2628571 73.6525977,20.592 C72.1931034,20.9211429 71.1396782,21.4501224 70.4923218,22.1789388 C69.8449655,22.9077551 69.5212874,23.9069388 69.5212874,25.1764898 C69.5212874,26.1874286 69.792,27.1043265 70.3334253,27.9271837 C70.8748506,28.7500408 71.6163678,29.3965714 72.557977,29.8667755 C73.4995862,30.3369796 74.5471264,30.5720816 75.7005977,30.5720816 Z M76.5833563,27.3982041 C75.7829885,27.3982041 75.1238621,27.1572245 74.605977,26.6752653 C74.088092,26.1933061 73.8291494,25.5761633 73.8291494,24.8238367 C73.8291494,24.2125714 74.0174713,23.7306122 74.3941149,23.3779592 C74.7707586,23.0253061 75.3945747,22.778449 76.2655632,22.6373878 C77.1365517,22.4963265 78.3606437,22.4257959 79.9378391,22.4257959 L79.9378391,22.4257959 L80.5734253,22.4257959 L80.5734253,23.1663673 C80.5734253,24.4124082 80.2026667,25.4292245 79.4611494,26.2168163 C78.7196322,27.0044082 77.7603678,27.3982041 76.5833563,27.3982041 Z M95.6156322,30.5720816 C97.8284138,30.5720816 99.5821609,30.1018776 100.876874,29.1614694 C102.171586,28.2210612 102.818943,26.9515102 102.818943,25.3528163 C102.818943,24.0362449 102.418759,22.9724082 101.618391,22.1613061 C100.818023,21.3502041 99.5586207,20.7565714 97.8401839,20.3804082 L97.8401839,20.3804082 L94.9094253,19.7103673 C94.1561379,19.5457959 93.6088276,19.3106939 93.2674943,19.0050612 C92.9261609,18.6994286 92.7554943,18.3115102 92.7554943,17.8413061 C92.7554943,17.2065306 93.0262069,16.7128163 93.5676322,16.3601633 C94.1090575,16.0075102 94.8623448,15.8311837 95.8274943,15.8311837 C97.6165517,15.8311837 99.4056092,16.4777143 101.194667,17.7707755 L101.194667,17.7707755 L102.430529,14.7732245 C101.55954,14.0914286 100.553195,13.562449 99.4114943,13.1862857 C98.2697931,12.8101224 97.0868966,12.6220408 95.8628046,12.6220408 C94.4503908,12.6220408 93.2086437,12.8453878 92.1375632,13.2920816 C91.0664828,13.7387755 90.2308046,14.3676735 89.6305287,15.1787755 C89.0302529,15.9898776 88.7301149,16.9244082 88.7301149,17.9823673 C88.7301149,19.2519184 89.1185287,20.2863673 89.8953563,21.0857143 C90.6721839,21.8850612 91.8609655,22.4610612 93.4617011,22.8137143 L93.4617011,22.8137143 L96.2865287,23.4484898 C97.2281379,23.6835918 97.8813793,23.9422041 98.2462529,24.2243265 C98.6111264,24.506449 98.7935632,24.9061224 98.7935632,25.4233469 C98.7935632,26.0346122 98.5287356,26.5048163 97.9990805,26.8339592 C97.4694253,27.163102 96.6984828,27.3276735 95.6862529,27.3276735 C93.3086897,27.3276735 91.2018391,26.6576327 89.3657011,25.317551 L89.3657011,25.317551 L88.1298391,28.3856327 C89.0243678,29.0909388 90.1131034,29.6316735 91.396046,30.0078367 C92.6789885,30.384 94.0855172,30.5720816 95.6156322,30.5720816 Z M110.79908,30.2899592 L110.79908,20.5214694 C110.79908,19.1813878 111.181609,18.1116735 111.946667,17.3123265 C112.711724,16.5129796 113.729839,16.1133061 115.001011,16.1133061 C116.083862,16.1133061 116.878345,16.4189388 117.38446,17.0302041 C117.890575,17.6414694 118.143632,18.6171429 118.143632,19.9572245 L118.143632,19.9572245 L118.143632,30.2899592 L122.557425,30.2899592 L122.557425,19.7103673 C122.557425,17.3358367 122.05131,15.5608163 121.03908,14.3853061 C120.026851,13.2097959 118.484966,12.6220408 116.413425,12.6220408 C115.212874,12.6220408 114.124138,12.8630204 113.147218,13.3449796 C112.170299,13.8269388 111.387586,14.5263673 110.79908,15.4432653 L110.79908,15.4432653 L110.79908,5.42791837 L106.385287,5.42791837 L106.385287,30.2899592 L110.79908,30.2899592 Z M141.985287,30.2899592 L141.985287,20.6272653 L148.305839,20.6272653 C150.965885,20.6272653 153.037425,19.9572245 154.52046,18.6171429 C156.003494,17.2770612 156.745011,15.408 156.745011,13.0099592 C156.745011,10.6119184 156.003494,8.74873469 154.52046,7.42040816 C153.037425,6.09208163 150.965885,5.42791837 148.305839,5.42791837 L148.305839,5.42791837 L137.430253,5.42791837 L137.430253,30.2899592 L141.985287,30.2899592 Z M147.740874,17.136 L141.985287,17.136 L141.985287,8.95444898 L147.740874,8.95444898 C149.318069,8.95444898 150.49508,9.28946939 151.271908,9.9595102 C152.048736,10.629551 152.437149,11.6581224 152.437149,13.0452245 C152.437149,15.7724082 150.871724,17.136 147.740874,17.136 L147.740874,17.136 Z M168.220874,30.5720816 C169.986391,30.5720816 171.534161,30.2076735 172.864184,29.4788571 C174.194207,28.7500408 175.218207,27.7038367 175.936184,26.3402449 C176.654161,24.9766531 177.013149,23.3897143 177.013149,21.5794286 C177.013149,19.7691429 176.654161,18.1880816 175.936184,16.8362449 C175.218207,15.4844082 174.194207,14.4440816 172.864184,13.7152653 C171.534161,12.986449 169.986391,12.6220408 168.220874,12.6220408 C166.455356,12.6220408 164.907586,12.986449 163.577563,13.7152653 C162.24754,14.4440816 161.217655,15.4844082 160.487908,16.8362449 C159.758161,18.1880816 159.393287,19.7691429 159.393287,21.5794286 C159.393287,23.3897143 159.758161,24.9766531 160.487908,26.3402449 C161.217655,27.7038367 162.24754,28.7500408 163.577563,29.4788571 C164.907586,30.2076735 166.455356,30.5720816 168.220874,30.5720816 Z M168.185563,27.1513469 C166.773149,27.1513469 165.690299,26.6811429 164.937011,25.7407347 C164.183724,24.8003265 163.80708,23.4132245 163.80708,21.5794286 C163.80708,19.7691429 164.189609,18.3879184 164.954667,17.4357551 C165.719724,16.4835918 166.80846,16.0075102 168.220874,16.0075102 C169.633287,16.0075102 170.716138,16.4835918 171.469425,17.4357551 C172.222713,18.3879184 172.599356,19.7691429 172.599356,21.5794286 C172.599356,23.4132245 172.222713,24.8003265 171.469425,25.7407347 C170.716138,26.6811429 169.621517,27.1513469 168.185563,27.1513469 Z M188.524322,30.5720816 C190.289839,30.5720816 191.837609,30.2076735 193.167632,29.4788571 C194.497655,28.7500408 195.521655,27.7038367 196.239632,26.3402449 C196.957609,24.9766531 197.316598,23.3897143 197.316598,21.5794286 C197.316598,19.7691429 196.957609,18.1880816 196.239632,16.8362449 C195.521655,15.4844082 194.497655,14.4440816 193.167632,13.7152653 C191.837609,12.986449 190.289839,12.6220408 188.524322,12.6220408 C186.758805,12.6220408 185.211034,12.986449 183.881011,13.7152653 C182.550989,14.4440816 181.521103,15.4844082 180.791356,16.8362449 C180.061609,18.1880816 179.696736,19.7691429 179.696736,21.5794286 C179.696736,23.3897143 180.061609,24.9766531 180.791356,26.3402449 C181.521103,27.7038367 182.550989,28.7500408 183.881011,29.4788571 C185.211034,30.2076735 186.758805,30.5720816 188.524322,30.5720816 Z M188.489011,27.1513469 C187.076598,27.1513469 185.993747,26.6811429 185.24046,25.7407347 C184.487172,24.8003265 184.110529,23.4132245 184.110529,21.5794286 C184.110529,19.7691429 184.493057,18.3879184 185.258115,17.4357551 C186.023172,16.4835918 187.111908,16.0075102 188.524322,16.0075102 C189.936736,16.0075102 191.019586,16.4835918 191.772874,17.4357551 C192.526161,18.3879184 192.902805,19.7691429 192.902805,21.5794286 C192.902805,23.4132245 192.526161,24.8003265 191.772874,25.7407347 C191.019586,26.6811429 189.924966,27.1513469 188.489011,27.1513469 Z M205.367356,30.2899592 L205.367356,5.42791837 L200.953563,5.42791837 L200.953563,30.2899592 L205.367356,30.2899592 Z" id="FlashPool" fill="#FFFFFF" fill-rule="nonzero"></path>
                <g id="编组">
                    <g transform="translate(0.000000, 0.625224)" id="Fill-1-Clipped">
                        <mask id="mask-2" fill="white">
                            <use xlink:href="#path-1"></use>
                        </mask>
                        <g id="path-1"></g>
                        <path d="M22.8702897,8.1343102 C22.8702897,8.1343102 17.3442207,10.1745551 11.4525425,8.1343102 C5.56012874,6.09406531 0.000220689655,8.1343102 0.000220689655,8.1343102 L0.000220689655,1.02173878 C0.000220689655,1.02173878 3.67102529,-1.03173061 11.4525425,1.02173878 C19.2333241,3.07594286 22.8702897,1.02173878 22.8702897,1.02173878 L22.8702897,8.1343102 Z" id="Fill-1" fill="#FFFFFF" fill-rule="nonzero" mask="url(#mask-2)"></path>
                    </g>
                    <g transform="translate(0.000000, 11.645633)" id="Fill-3-Clipped">
                        <mask id="mask-4" fill="white">
                            <use xlink:href="#path-3"></use>
                        </mask>
                        <g id="path-3"></g>
                        <path d="M22.8702897,8.48439184 C22.8702897,8.48439184 17.3442207,10.5246367 11.4525425,8.48439184 C5.56012874,6.44414694 0.000220689655,8.48439184 0.000220689655,8.48439184 L0.000220689655,1.3725551 C0.000220689655,1.3725551 3.67102529,-0.68164898 11.4525425,1.3725551 C19.2333241,3.42602449 22.8702897,1.3725551 22.8702897,1.3725551 L22.8702897,8.48439184 Z" id="Fill-3" fill="#FFFFFF" fill-rule="nonzero" mask="url(#mask-4)"></path>
                    </g>
                    <g transform="translate(0.000000, 23.400735)" id="Fill-5-Clipped">
                        <mask id="mask-6" fill="white">
                            <use xlink:href="#path-5"></use>
                        </mask>
                        <g id="path-5"></g>
                        <path d="M12.1522759,6.42166531 C12.1522759,9.77333878 9.43190805,12.4902367 6.07595402,12.4902367 C2.72073563,12.4902367 -0.000367816092,9.77333878 -0.000367816092,6.42166531 C-0.000367816092,3.06999184 2.72073563,0.353093878 6.07595402,0.353093878 C9.43190805,0.353093878 12.1522759,3.06999184 12.1522759,6.42166531" id="Fill-5" fill="#FFFFFF" fill-rule="nonzero" mask="url(#mask-6)"></path>
                    </g>
                </g>
            </g>
        </g>
    </g>
</svg>