<?xml version="1.0" encoding="UTF-8"?>
<svg width="12px" height="12px" viewBox="0 0 12 12" version="1.1" xmlns="http://www.w3.org/2000/svg" xmlns:xlink="http://www.w3.org/1999/xlink">
    <title>链接</title>
    <g id="Page-1" stroke="none" stroke-width="1" fill="none" fill-rule="evenodd" opacity="0.598842076">
        <g id="flash-pool-supply-退出登录" transform="translate(-882.000000, -517.000000)" fill="#00AF7C" fill-rule="nonzero">
            <g id="编组-2" transform="translate(735.000000, 351.000000)">
                <g id="1备份" transform="translate(30.000000, 116.000000)">
                    <g id="链接" transform="translate(117.000000, 50.000000)">
                        <path d="M5.84363752,6.63357042 C5.96895243,6.63316901 6.08908816,6.58352615 6.17813229,6.49534944 L11.0531863,1.62305987 L11.0531863,3.00526968 C11.0531863,3.26691591 11.2652925,3.47902209 11.5269387,3.47902209 C11.7885849,3.47902209 12.0006911,3.26691591 12.0006911,3.00526968 L12.0006911,0.479972355 C12.0006911,0.354357158 11.9507671,0.233891875 11.8619113,0.145100928 C11.7730555,0.0563099808 11.6525539,0.00647381052 11.5269387,0.0065653737 L9.00095027,0.0065653737 C8.73949489,0.0065653737 8.52754342,0.218516969 8.52754342,0.479972355 C8.52754342,0.741427742 8.73949489,0.953379211 9.00095027,0.953379211 L10.3831601,0.953379211 L5.50810609,5.82566879 L5.50395946,5.82981541 C5.41628227,5.91856557 5.36746041,6.03851578 5.36822894,6.16326863 C5.36901577,6.28802149 5.41932926,6.40735371 5.50810609,6.49500389 C5.5974127,6.58346401 5.71793647,6.63323748 5.84363752,6.63357042 Z M9.63262015,11.9996544 C10.93949,11.9979421 11.9985973,10.9391438 12.0006911,9.6322746 L12.0006911,6.00397385 C12.0006911,5.74232762 11.7885849,5.53022144 11.5269387,5.53022144 C11.2652925,5.53022144 11.0531863,5.74232762 11.0531863,6.00397385 L11.0531863,9.6322746 C11.0512867,10.4160434 10.416389,11.0509411 9.63262015,11.0528407 L2.37118092,11.0528407 C1.5874121,11.0509411 0.95251439,10.4160434 0.950614793,9.6322746 L0.950614793,2.37187204 C0.952514384,1.58810321 1.5874121,0.953205492 2.37118092,0.951305895 L6.00259165,0.951305895 C6.17172363,0.951305897 6.32800803,0.861075061 6.41257402,0.714602469 C6.49714001,0.568129877 6.49714001,0.387668201 6.41257402,0.241195609 C6.32800803,0.0947230174 6.17172363,0.00449218359 6.00259165,0.00449218359 L2.37118092,0.00449218359 C1.06431112,0.0062045584 0.00520379809,1.06500278 0.00310996875,2.37187204 L0.00310996875,9.6322746 C0.00520379809,10.9391438 1.06431112,11.9979421 2.37118092,11.9996544 L9.63365681,11.9996544 L9.63262015,11.9996544 Z" id="形状"></path>
                    </g>
                </g>
            </g>
        </g>
    </g>
</svg>