<?xml version="1.0" encoding="UTF-8"?>
<svg width="2px" height="10px" viewBox="0 0 2 10" version="1.1" xmlns="http://www.w3.org/2000/svg" xmlns:xlink="http://www.w3.org/1999/xlink">
    <title>形状结合</title>
    <g id="更新-FLASH-POOL" stroke="none" stroke-width="1" fill="none" fill-rule="evenodd">
        <g id="flash-pool-弹窗" transform="translate(-1745.000000, -999.000000)" fill="#00AF7C">
            <g id="编组-10" transform="translate(1605.000000, 988.000000)">
                <path d="M141,19 C141.552285,19 142,19.4477153 142,20 C142,20.5522847 141.552285,21 141,21 C140.447715,21 140,20.5522847 140,20 C140,19.4477153 140.447715,19 141,19 Z M141,15 C141.552285,15 142,15.4477153 142,16 C142,16.5522847 141.552285,17 141,17 C140.447715,17 140,16.5522847 140,16 C140,15.4477153 140.447715,15 141,15 Z M141,11 C141.552285,11 142,11.4477153 142,12 C142,12.5522847 141.552285,13 141,13 C140.447715,13 140,12.5522847 140,12 C140,11.4477153 140.447715,11 141,11 Z" id="形状结合"></path>
            </g>
        </g>
    </g>
</svg>