<?xml version="1.0" encoding="UTF-8"?>
<svg width="339px" height="240px" viewBox="0 0 339 240" version="1.1" xmlns="http://www.w3.org/2000/svg" xmlns:xlink="http://www.w3.org/1999/xlink">
    <title>插图</title>
    <defs>
        <linearGradient x1="49.5384615%" y1="-0.408163265%" x2="49.5384615%" y2="49.5918367%" id="linearGradient-1">
            <stop stop-color="#A9A9A9" stop-opacity="0.15" offset="0%"></stop>
            <stop stop-color="#A9A9A9" stop-opacity="0" offset="100%"></stop>
        </linearGradient>
        <radialGradient cx="49.9349333%" cy="-122.642496%" fx="49.9349333%" fy="-122.642496%" r="474.161889%" gradientTransform="translate(0.499349,-1.226425),scale(0.105422,1.000000),translate(-0.499349,1.226425)" id="radialGradient-2">
            <stop stop-color="#808184" offset="0%"></stop>
            <stop stop-color="#9A9A9D" offset="7%"></stop>
            <stop stop-color="#B9B9BB" offset="17%"></stop>
            <stop stop-color="#D2D3D4" offset="28%"></stop>
            <stop stop-color="#E6E7E7" offset="40%"></stop>
            <stop stop-color="#F4F4F5" offset="53%"></stop>
            <stop stop-color="#FDFDFD" offset="70%"></stop>
            <stop stop-color="#FFFFFF" offset="99%"></stop>
        </radialGradient>
        <linearGradient x1="-0.235220095%" y1="49.9194105%" x2="99.9685402%" y2="49.9194105%" id="linearGradient-3">
            <stop stop-color="#272727" offset="0%"></stop>
            <stop stop-color="#2A2A2A" offset="98.1370192%"></stop>
        </linearGradient>
        <linearGradient x1="-0.000334216434%" y1="50.0225678%" x2="99.9956317%" y2="50.0225678%" id="linearGradient-4">
            <stop stop-color="#000000" offset="0%"></stop>
            <stop stop-color="#000000" offset="100%"></stop>
        </linearGradient>
        <linearGradient x1="-0.235220095%" y1="49.9194105%" x2="99.9685402%" y2="49.9194105%" id="linearGradient-5">
            <stop stop-color="#272727" offset="0%"></stop>
            <stop stop-color="#2A2A2A" offset="98.1370192%"></stop>
        </linearGradient>
        <linearGradient x1="-0.235220095%" y1="49.9194105%" x2="99.9685402%" y2="49.9194105%" id="linearGradient-6">
            <stop stop-color="#272727" offset="0%"></stop>
            <stop stop-color="#2A2A2A" offset="98.1370192%"></stop>
        </linearGradient>
        <linearGradient x1="-0.235220095%" y1="49.9194105%" x2="99.9685402%" y2="49.9194105%" id="linearGradient-7">
            <stop stop-color="#272727" offset="0%"></stop>
            <stop stop-color="#2A2A2A" offset="98.1370192%"></stop>
        </linearGradient>
        <linearGradient x1="-0.235220095%" y1="49.9194105%" x2="99.9685402%" y2="49.9194105%" id="linearGradient-8">
            <stop stop-color="#272727" offset="0%"></stop>
            <stop stop-color="#2A2A2A" offset="98.1370192%"></stop>
        </linearGradient>
        <linearGradient x1="-0.235220095%" y1="49.9194105%" x2="99.9685402%" y2="49.9194105%" id="linearGradient-9">
            <stop stop-color="#272727" offset="0%"></stop>
            <stop stop-color="#2A2A2A" offset="98.1370192%"></stop>
        </linearGradient>
        <linearGradient x1="-0.235220095%" y1="49.9194105%" x2="99.9685402%" y2="49.9194105%" id="linearGradient-10">
            <stop stop-color="#272727" offset="0%"></stop>
            <stop stop-color="#2A2A2A" offset="98.1370192%"></stop>
        </linearGradient>
        <linearGradient x1="-0.235220095%" y1="49.9194105%" x2="99.9685402%" y2="49.9194105%" id="linearGradient-11">
            <stop stop-color="#272727" offset="0%"></stop>
            <stop stop-color="#2A2A2A" offset="98.1370192%"></stop>
        </linearGradient>
        <linearGradient x1="-0.235220095%" y1="49.9194105%" x2="98.1017635%" y2="49.9194105%" id="linearGradient-12">
            <stop stop-color="#272727" offset="0%"></stop>
            <stop stop-color="#2A2A2A" offset="100%"></stop>
        </linearGradient>
        <linearGradient x1="-0.000334216434%" y1="50.0225678%" x2="99.9956317%" y2="50.0225678%" id="linearGradient-13">
            <stop stop-color="#0C0C0C" offset="0%"></stop>
            <stop stop-color="#202020" offset="100%"></stop>
        </linearGradient>
        <linearGradient x1="0%" y1="50%" x2="99.9932268%" y2="50%" id="linearGradient-14">
            <stop stop-color="#EEEEEE" offset="0%"></stop>
            <stop stop-color="#D8D8D8" offset="100%"></stop>
        </linearGradient>
        <linearGradient x1="-0.000334216434%" y1="50.0225678%" x2="99.9956317%" y2="50.0225678%" id="linearGradient-15">
            <stop stop-color="#272727" offset="0%"></stop>
            <stop stop-color="#202020" offset="100%"></stop>
        </linearGradient>
        <linearGradient x1="-0.000334216434%" y1="50.0225678%" x2="99.9956317%" y2="50.0225678%" id="linearGradient-16">
            <stop stop-color="#272727" offset="0%"></stop>
            <stop stop-color="#202020" offset="100%"></stop>
        </linearGradient>
        <linearGradient x1="-0.235220095%" y1="49.9194105%" x2="98.1017635%" y2="49.9194105%" id="linearGradient-17">
            <stop stop-color="#272727" offset="0%"></stop>
            <stop stop-color="#2A2A2A" offset="100%"></stop>
        </linearGradient>
        <linearGradient x1="-0.235220095%" y1="49.9194105%" x2="98.1017635%" y2="49.9194105%" id="linearGradient-18">
            <stop stop-color="#272727" offset="0%"></stop>
            <stop stop-color="#2A2A2A" offset="100%"></stop>
        </linearGradient>
        <linearGradient x1="-0.235220095%" y1="49.9194105%" x2="98.1017635%" y2="49.9194105%" id="linearGradient-19">
            <stop stop-color="#272727" offset="0%"></stop>
            <stop stop-color="#2A2A2A" offset="100%"></stop>
        </linearGradient>
        <linearGradient x1="-0.000334216434%" y1="50.0225678%" x2="99.9956317%" y2="50.0225678%" id="linearGradient-20">
            <stop stop-color="#272727" offset="0%"></stop>
            <stop stop-color="#202020" offset="100%"></stop>
        </linearGradient>
        <linearGradient x1="-0.235220095%" y1="49.9194105%" x2="98.1017635%" y2="49.9194105%" id="linearGradient-21">
            <stop stop-color="#272727" offset="0%"></stop>
            <stop stop-color="#2A2A2A" offset="100%"></stop>
        </linearGradient>
        <linearGradient x1="-0.000334216434%" y1="50.0225678%" x2="99.9956317%" y2="50.0225678%" id="linearGradient-22">
            <stop stop-color="#272727" offset="0%"></stop>
            <stop stop-color="#202020" offset="100%"></stop>
        </linearGradient>
        <linearGradient x1="-0.000334216434%" y1="50.0225678%" x2="99.9956317%" y2="50.0225678%" id="linearGradient-23">
            <stop stop-color="#272727" offset="0%"></stop>
            <stop stop-color="#202020" offset="100%"></stop>
        </linearGradient>
        <linearGradient x1="-0.000334216434%" y1="50.0225678%" x2="99.9956317%" y2="50.0225678%" id="linearGradient-24">
            <stop stop-color="#272727" offset="0%"></stop>
            <stop stop-color="#202020" offset="100%"></stop>
        </linearGradient>
        <linearGradient x1="-0.000334216434%" y1="50.0225678%" x2="99.9956317%" y2="50.0225678%" id="linearGradient-25">
            <stop stop-color="#272727" offset="0%"></stop>
            <stop stop-color="#202020" offset="100%"></stop>
        </linearGradient>
        <linearGradient x1="-0.000334216434%" y1="50.0225678%" x2="99.9956317%" y2="50.0225678%" id="linearGradient-26">
            <stop stop-color="#272727" offset="0%"></stop>
            <stop stop-color="#202020" offset="100%"></stop>
        </linearGradient>
        <linearGradient x1="-0.000334216434%" y1="50.0225678%" x2="99.9956317%" y2="50.0225678%" id="linearGradient-27">
            <stop stop-color="#4B4B4B" offset="0%"></stop>
            <stop stop-color="#525252" offset="100%"></stop>
        </linearGradient>
        <linearGradient x1="-0.235220095%" y1="49.9194105%" x2="98.1017635%" y2="49.9194105%" id="linearGradient-28">
            <stop stop-color="#272727" offset="0%"></stop>
            <stop stop-color="#2A2A2A" offset="100%"></stop>
        </linearGradient>
        <linearGradient x1="-0.235220095%" y1="49.9194105%" x2="98.1017635%" y2="49.9194105%" id="linearGradient-29">
            <stop stop-color="#272727" offset="0%"></stop>
            <stop stop-color="#2A2A2A" offset="100%"></stop>
        </linearGradient>
        <linearGradient x1="-0.235220095%" y1="49.9194105%" x2="98.1017635%" y2="49.9194105%" id="linearGradient-30">
            <stop stop-color="#272727" offset="0%"></stop>
            <stop stop-color="#2A2A2A" offset="100%"></stop>
        </linearGradient>
        <linearGradient x1="-0.235220095%" y1="49.9194105%" x2="98.1017635%" y2="49.9194105%" id="linearGradient-31">
            <stop stop-color="#272727" offset="0%"></stop>
            <stop stop-color="#2A2A2A" offset="100%"></stop>
        </linearGradient>
        <linearGradient x1="-0.000334216434%" y1="50.0225678%" x2="99.9956317%" y2="50.0225678%" id="linearGradient-32">
            <stop stop-color="#272727" offset="0%"></stop>
            <stop stop-color="#202020" offset="100%"></stop>
        </linearGradient>
        <linearGradient x1="-0.000334216434%" y1="50.0225678%" x2="99.9956317%" y2="50.0225678%" id="linearGradient-33">
            <stop stop-color="#272727" offset="0%"></stop>
            <stop stop-color="#202020" offset="100%"></stop>
        </linearGradient>
        <linearGradient x1="-0.235220095%" y1="49.9194105%" x2="98.1017635%" y2="49.9194105%" id="linearGradient-34">
            <stop stop-color="#555555" offset="0%"></stop>
            <stop stop-color="#6A6A6A" offset="100%"></stop>
        </linearGradient>
        <linearGradient x1="-0.235220095%" y1="49.9194105%" x2="98.1017635%" y2="49.9194105%" id="linearGradient-35">
            <stop stop-color="#272727" offset="0%"></stop>
            <stop stop-color="#2A2A2A" offset="100%"></stop>
        </linearGradient>
        <linearGradient x1="-0.000334216434%" y1="50.0225678%" x2="99.9956317%" y2="50.0225678%" id="linearGradient-36">
            <stop stop-color="#272727" offset="0%"></stop>
            <stop stop-color="#202020" offset="100%"></stop>
        </linearGradient>
    </defs>
    <g id="1103更新-FLASH-POOL" stroke="none" stroke-width="1" fill="none" fill-rule="evenodd">
        <g id="1109-flash-pool-维护中" transform="translate(-791.000000, -360.000000)" fill-rule="nonzero">
            <g id="插图" transform="translate(791.000000, 360.000000)">
                <ellipse id="背景" fill="url(#linearGradient-1)" cx="168.953069" cy="154.53574" rx="168.953069" ry="84.9097473"></ellipse>
                <ellipse id="椭圆形" fill="url(#radialGradient-2)" opacity="0.36" style="mix-blend-mode: multiply;" cx="164.187726" cy="116.335018" rx="97.4729242" ry="10.2758123"></ellipse>
                <g id="编组" transform="translate(114.368231, 0.000000)">
                    <path d="M72.5025271,108.433213 L60.233935,101.753069 C59.9568415,101.598572 59.7006166,101.409315 59.4714801,101.189892 C58.5747958,100.354409 57.5763002,99.6353752 56.499639,99.0498195 L68.768231,105.7213 C69.8475246,106.310334 70.8488151,107.032195 71.7487365,107.870036 C71.9749446,108.089151 72.2282661,108.278415 72.5025271,108.433213 L72.5025271,108.433213 Z" id="路径" fill="url(#linearGradient-3)"></path>
                    <path d="M60.233935,101.753069 C59.9568415,101.598572 59.7006166,101.409315 59.4714801,101.189892 C58.5747958,100.354409 57.5763002,99.6353752 56.499639,99.0498195 L68.768231,105.7213 C69.8475246,106.310334 70.8488151,107.032195 71.7487365,107.870036 C71.9749446,108.089151 72.2282661,108.278415 72.5025271,108.433213 L60.233935,101.753069 Z" id="路径" fill="url(#linearGradient-4)"></path>
                    <path d="M99.0844765,40.9472924 L86.8072202,34.2758123 L87.4743682,34.6137184 C88.834657,35.2722022 90.4808664,35.3588448 91.8931408,35.9220217 C92.0864897,35.9959209 92.2746412,36.0827601 92.4563177,36.1819495 L104.72491,42.8620939 C104.545341,42.7646298 104.360182,42.6778366 104.170397,42.6021661 C102.749458,42.0303249 101.111913,41.9436823 99.7429603,41.2938628 L99.0844765,40.9472924 Z" id="路径" fill="url(#linearGradient-5)"></path>
                    <g transform="translate(86.642599, 33.790614)" id="路径">
                        <path d="M12.4418773,7.1566787 L0.164620939,0.485198556 L0.701805054,0.762454874 L12.9790614,7.43393502 C12.7971119,7.34729242 12.6151625,7.26064982 12.4418773,7.1566787" fill="url(#linearGradient-6)"></path>
                        <path d="M12.9963899,7.43393502 L0.719133574,0.762454874 L0.849097473,0.823104693 C1.3284603,1.04270653 1.82740631,1.21675747 2.33935018,1.34296029 L14.6166065,8.02310469 C14.1022578,7.89556171 13.6005575,7.72156162 13.1176895,7.5032491 L12.9963899,7.43393502" fill="url(#linearGradient-7)"></path>
                        <path d="M14.599278,8.02310469 L2.32202166,1.34296029 C2.91119134,1.49891697 3.52635379,1.62021661 4.11552347,1.76750903 L16.3927798,8.44765343 C15.7949458,8.29169675 15.1884477,8.17039711 14.599278,8.02310469" fill="url(#linearGradient-8)"></path>
                        <path d="M16.3927798,8.44765343 L4.11552347,1.73285199 C4.50101055,1.83061031 4.88007508,1.95214246 5.25054152,2.0967509 C5.37498871,2.14438279 5.49650165,2.19935293 5.61444043,2.26137184 L17.8916968,8.93285199 L17.5277978,8.77689531 C17.1573314,8.63228686 16.7782669,8.51075472 16.3927798,8.41299639" fill="url(#linearGradient-9)"></path>
                        <polyline fill="url(#linearGradient-10)" points="17.8916968 8.96750903 5.61444043 2.29602888 5.81371841 2.39133574 18.0823105 9.07148014 17.8916968 8.96750903"></polyline>
                    </g>
                    <path d="M77.6924188,67.7891697 C77.9176895,67.2779783 78.134296,66.7494585 78.333574,66.2296029 L78.3855596,66.0823105 C78.38901,66.0535327 78.38901,66.0244457 78.3855596,65.9956679 C78.4548736,65.7963899 78.5241877,65.5971119 78.5848375,65.3978339 C78.6454874,65.198556 78.7061372,65.0599278 78.7581227,64.8866426 C78.8101083,64.7133574 78.8794224,64.4794224 78.9400722,64.2801444 L79.0960289,63.7516245 L79.2519856,63.1277978 C79.2953069,62.9545126 79.3386282,62.7812274 79.3732852,62.6079422 C79.4079422,62.434657 79.4685921,62.1833935 79.5119134,61.966787 L79.6158845,61.4469314 L79.7198556,60.7797834 L79.7978339,60.2685921 C79.7978339,60.034657 79.8498195,59.7920578 79.8758123,59.5581227 C79.9018051,59.3241877 79.9191336,59.2375451 79.9364621,59.0815884 L79.9884477,58.3018051 L79.9884477,57.8772563 C79.9884477,57.4787004 79.9884477,57.0714801 79.9884477,56.6729242 C79.9884477,48.8750903 76.2021661,42.5501805 70.4577617,39.4223827 L58.1891697,32.7422383 C63.9422383,35.8700361 67.7198556,42.1862816 67.7198556,49.9927798 C67.7198556,50.4 67.7198556,50.798556 67.7198556,51.2057762 C67.7198556,51.3444043 67.7198556,51.4830325 67.7198556,51.6216606 L67.66787,52.401444 L67.6158845,52.8779783 C67.6158845,53.1205776 67.5638989,53.3545126 67.5292419,53.5971119 C67.4945848,53.8397112 67.4772563,53.9350181 67.4512635,54.099639 L67.3472924,54.766787 L67.2433213,55.2866426 L67.1133574,55.9364621 L66.9833935,56.4563177 L66.8274368,57.0801444 L66.6714801,57.6 C66.6194946,57.799278 66.5588448,58.0072202 66.4981949,58.2064982 C66.4375451,58.4057762 66.3768953,58.5530686 66.3249097,58.7263538 L66.1169675,59.3155235 L66.0303249,59.5494585 C65.8310469,60.0779783 65.6231047,60.5978339 65.3891697,61.1090253 C65.3697679,61.1653855 65.3466114,61.2203824 65.3198556,61.2736462 C65.0859206,61.8021661 64.8259928,62.3133574 64.5574007,62.8245487 L64.3927798,63.1364621 C64.1588448,63.5610108 63.9249097,64.0028881 63.6649819,64.3927798 C63.6674702,64.410019 63.6674702,64.4275261 63.6649819,64.4447653 C63.4223827,64.8433213 63.1624549,65.2245487 62.9025271,65.6057762 L62.6685921,65.9436823 L62.0534296,66.8101083 L61.8454874,67.0787004 C61.568231,67.4252708 61.2823105,67.7718412 60.9790614,68.1097473 L60.7971119,68.3090253 C60.5545126,68.5776173 60.3032491,68.8375451 60.0519856,69.0974729 L59.7574007,69.3920578 C59.5148014,69.634657 59.2722022,69.8685921 59.0122744,70.1025271 L58.7783394,70.3191336 C58.431769,70.6310469 58.0765343,70.934296 57.7126354,71.1855596 L57.4613718,71.3848375 C57.1581227,71.6187726 56.8548736,71.8440433 56.5429603,72.0606498 L56.265704,72.2512635 C55.8064982,72.5718412 55.3386282,72.866426 54.8534296,73.1176895 L54.5935018,73.2649819 C54.099639,73.5422383 53.6057762,73.8021661 53.0945848,74.0447653 L52.8433213,74.1574007 C52.4967509,74.3220217 52.1415162,74.4693141 51.7776173,74.6166065 L51.4483755,74.7465704 C51.0064982,74.9111913 50.5819495,75.067148 50.1227437,75.1971119 L49.9407942,75.2490975 C49.5422383,75.3703971 49.1436823,75.4743682 48.7451264,75.5610108 L48.3812274,75.6476534 C47.9133574,75.7429603 47.4541516,75.8382671 46.9862816,75.898917 C46.5184116,75.9595668 45.799278,76.0375451 45.2534296,76.0635379 L44.7162455,76.0635379 C44.3176895,76.0635379 43.9191336,76.0635379 43.5205776,76.0635379 L42.9227437,76.0635379 C42.5415162,76.0635379 42.1602888,75.9942238 41.7877256,75.9422383 L41.2505415,75.8729242 C40.7740072,75.7949458 40.2974729,75.699639 39.8296029,75.5783394 L39.6563177,75.5783394 C39.1277978,75.4397112 38.6166065,75.2750903 38.1140794,75.0931408 L37.6635379,74.9198556 C37.3083032,74.7812274 36.9617329,74.633935 36.6151625,74.4693141 C36.2685921,74.3046931 36.0173285,74.1920578 35.7487365,74.0361011 L48.0259928,80.7075812 C48.233935,80.8288809 48.4505415,80.932852 48.6584838,81.0368231 L48.9097473,81.1494585 C49.2476534,81.3054152 49.6028881,81.4527076 49.9581227,81.6 L50.4,81.7732852 C50.9111913,81.9552347 51.4223827,82.1198556 51.9509025,82.2584838 L51.9509025,82.2584838 L52.1068592,82.2584838 C52.5747292,82.3711191 53.0512635,82.466426 53.5277978,82.5530686 L54.0649819,82.6223827 C54.4375451,82.6743682 54.8187726,82.7090253 55.2,82.7350181 L55.7978339,82.7350181 C56.1848375,82.7350181 56.5833935,82.7350181 56.9935018,82.7350181 L57.5306859,82.7350181 C58.1111913,82.7350181 58.700361,82.6570397 59.2635379,82.5703971 C59.8267148,82.4837545 60.199278,82.4144404 60.6584838,82.3191336 L61.0310469,82.232491 L62.2267148,81.9205776 L62.4086643,81.8685921 C62.8505415,81.7299639 63.2750903,81.5826715 63.7256318,81.4180505 L64.0635379,81.2794224 C64.4187726,81.1407942 64.7826715,80.9848375 65.1292419,80.8288809 L65.3198556,80.7509025 L65.3805054,80.7509025 C65.8916968,80.5083032 66.3855596,80.2483755 66.8794224,79.9711191 L67.1393502,79.8151625 C67.6245487,79.5379061 68.0924188,79.234657 68.5516245,78.9487365 L68.6469314,78.8880866 L68.8288809,78.7581227 C69.1407942,78.532852 69.4440433,78.3162455 69.6953069,78.0823105 L69.9552347,77.8830325 C70.3191336,77.5971119 70.6743682,77.2938628 71.0209386,77.0166065 L71.0815884,76.9646209 L71.2548736,76.8 C71.5061372,76.566065 71.7574007,76.33213 72,76.0895307 L72.2945848,75.7949458 C72.5458484,75.5350181 72.7884477,75.2750903 73.0310469,74.9978339 L73.1783394,74.8505415 L73.1783394,74.798556 C73.4729242,74.4693141 73.7588448,74.1227437 74.0447653,73.767509 L74.2440433,73.498917 C74.4635379,73.2274368 74.6714801,72.9386282 74.86787,72.632491 L74.9978339,72.4592058 L75.1018051,72.3032491 C75.3617329,71.9220217 75.6216606,71.53213 75.8642599,71.1422383 L75.8642599,71.0902527 C76.1155235,70.6743682 76.3581227,70.2238267 76.5920578,69.8252708 L76.6787004,69.6779783 L76.7566787,69.5220217 C77.0252708,69.0108303 77.2765343,68.499639 77.5191336,67.9711191 C77.6490975,67.8931408 77.666426,67.8411552 77.6924188,67.7891697 Z" id="路径" fill="url(#linearGradient-11)"></path>
                    <path d="M34.4057762,109.446931 L22.1285199,102.766787 C20.1465715,101.695707 18.2722375,100.436479 16.5314079,99.0064982 C16.0554261,98.5248573 15.6525909,97.9760672 15.3357401,97.3776173 L27.6129964,104.049097 C27.927189,104.646991 28.3270835,105.195751 28.8,105.677978 C30.5451004,107.108878 32.4221146,108.370858 34.4057762,109.446931 Z" id="路径" fill="url(#linearGradient-12)"></path>
                    <path d="M22.1285199,102.766787 C20.1465715,101.695707 18.2722375,100.436479 16.5314079,99.0064982 C16.0554261,98.5248573 15.1743195,98.178966 14.8574687,97.5805161 L27.6129964,104.049097 C27.927189,104.646991 28.3270835,105.195751 28.8,105.677978 C30.5451004,107.108878 32.4221146,108.370858 34.4057762,109.446931 L22.1285199,102.766787 Z" id="路径" fill="url(#linearGradient-13)"></path>
                    <path d="M7.71119134,74.001444 L19.9884477,80.6729242 C22.9119157,82.3608076 25.2237672,84.9335766 26.5906137,88.0202166 C28.8866426,92.7595668 29.0599278,97.9494585 27.6129964,104.049097 L15.3357401,97.3776173 C16.7826715,91.3126354 16.6093863,86.1140794 14.3220217,81.3400722 C12.95701,78.2517197 10.6407264,75.6804324 7.71119134,74.001444 Z" id="路径" fill="url(#linearGradient-14)"></path>
                    <path d="M27.6129964,104.049097 L15.3357401,97.3776173 C16.7826715,91.3126354 16.6093863,86.1140794 14.3220217,81.3400722 C12.95701,78.2517197 10.6407264,75.6804324 7.71119134,74.001444 L19.9884477,80.6729242 C22.9119157,82.3608076 25.2237672,84.9335766 26.5906137,88.0202166 C28.8866426,92.7595668 29.0599278,97.9494585 27.6129964,104.049097" id="路径" stroke="url(#linearGradient-15)" fill="url(#linearGradient-15)"></path>
                    <path d="M78.1083032,7.77184116 L78.6628159,7.97978339 C79.0873646,8.14440433 79.5292419,8.30036101 79.9191336,8.47364621 L80.5256318,8.73357401 C80.9415162,8.90685921 81.3487365,9.09747292 81.7559567,9.28808664 L82.2758123,9.53068592 C82.8476534,9.80794224 83.4194946,10.0938628 84.0086643,10.3971119 L71.7400722,3.71696751 C71.2375451,3.44837545 70.7436823,3.18844765 70.232491,2.94584838 L70.033213,2.85054152 L69.5133574,2.60794224 C69.1061372,2.41732852 68.698917,2.2267148 68.2830325,2.0534296 L67.6765343,1.79350181 L66.4288809,1.30830325 L65.8743682,1.10036101 C65.26787,0.883754513 64.6613718,0.675812274 64.0462094,0.476534296 L63.8122744,0.415884477 L63.5350181,0.363898917 L63.3357401,0.363898917 C63.1547158,0.337950493 62.970916,0.337950493 62.7898917,0.363898917 C62.6219397,0.384623895 62.458243,0.431394378 62.3046931,0.502527076 C62.1999804,0.553691482 62.098686,0.611573997 62.001444,0.675812274 L61.9407942,0.727797834 L61.8541516,0.797111913 C61.8087617,0.829100974 61.7653602,0.863822167 61.7241877,0.901083032 C61.6563806,0.963289837 61.5927072,1.02985741 61.533574,1.10036101 L61.4382671,1.19566787 C61.2999521,1.3535203 61.1698175,1.51835742 61.0483755,1.68953069 C60.7971119,2.02743682 60.5458484,2.3566787 60.2859206,2.67725632 C60.2079422,2.78122744 60.1212996,2.8765343 60.034657,2.98050542 C59.9480144,3.08447653 59.6880866,3.40505415 59.5061372,3.61299639 L59.2808664,3.85559567 C59.0555957,4.10685921 58.8303249,4.34945848 58.5963899,4.5833935 L58.2844765,4.90397112 C58.0765343,5.11191336 57.8599278,5.31119134 57.6433213,5.51046931 L57.3400722,5.79638989 C57.0194946,6.07364621 56.7075812,6.34223827 56.3783394,6.60216606 L56.3350181,6.60216606 C55.9971119,6.87075812 55.6505415,7.12202166 55.3039711,7.36462094 L55.0440433,7.5465704 C54.6454874,7.81516245 54.2469314,8.06642599 53.8397112,8.30902527 L53.7530686,8.36101083 C53.3285199,8.60361011 52.8866426,8.82888087 52.4620939,9.0368231 L52.167509,9.17545126 C51.8440433,9.32563177 51.5234657,9.46425993 51.2057762,9.59133574 L51.0498195,9.65198556 C50.6772563,9.79927798 50.3046931,9.92057762 49.93213,10.0418773 L49.6202166,10.1285199 L48.7537906,10.3537906 L48.4245487,10.431769 C48.0433213,10.5097473 47.6707581,10.5790614 47.2895307,10.6310469 C46.9083032,10.6830325 46.3711191,10.7350181 45.9119134,10.7610108 L44.5169675,10.7610108 L44.0404332,10.7610108 C43.7198556,10.7610108 43.4079422,10.700361 43.0960289,10.6570397 L42.6628159,10.6050542 C42.2296029,10.5357401 41.7963899,10.4490975 41.3718412,10.3364621 L41.3198556,10.3364621 C40.8779783,10.2151625 40.4534296,10.0765343 40.0028881,9.92057762 L39.6129964,9.76462094 C39.3126354,9.6433213 39.0093863,9.5133574 38.7032491,9.37472924 C38.4433213,9.2534296 38.1833935,9.13212996 37.9234657,8.99350181 L50.200722,15.6649819 L50.7552347,15.9595668 L50.9805054,16.0548736 C51.2750903,16.1935018 51.5783394,16.3234657 51.8469314,16.4361011 L52.2454874,16.600722 C52.6787004,16.7566787 53.1119134,16.8953069 53.5624549,17.0079422 L53.6144404,17.0079422 C54.0389892,17.1119134 54.4808664,17.198556 54.9054152,17.26787 L55.3299639,17.3285199 C55.6505415,17.3285199 55.9624549,17.4064982 56.2830325,17.4238267 C56.4417603,17.4324489 56.600839,17.4324489 56.7595668,17.4238267 C57.0801444,17.4238267 57.400722,17.4238267 57.7212996,17.4238267 L58.1545126,17.4238267 C58.6166065,17.4238267 59.0758123,17.3805054 59.53213,17.2938628 C59.9133574,17.2418773 60.2859206,17.1725632 60.667148,17.0859206 L60.9963899,17.0166065 L61.8628159,16.7913357 L62.166065,16.6960289 C62.5386282,16.5833935 62.9111913,16.4534296 63.2837545,16.3148014 L63.4483755,16.2454874 C63.7689531,16.1241877 64.0895307,15.9855596 64.401444,15.8382671 L64.5574007,15.7776173 C64.6046524,15.7482784 64.653866,15.7222242 64.7046931,15.699639 C65.1379061,15.4916968 65.5711191,15.266426 65.9956679,15.0238267 L66.0823105,14.9631769 C66.4895307,14.7292419 66.8880866,14.4693141 67.2866426,14.200722 L67.4425993,14.1054152 L67.5465704,14.0274368 C67.8931408,13.7848375 68.2397112,13.533574 68.5776173,13.2649819 C68.8981949,13.0137184 69.2187726,12.7451264 69.5306859,12.4592058 L69.6519856,12.3638989 L69.8425993,12.1819495 L70.4837545,11.566787 L70.7956679,11.2548736 C71.0209386,11.0209386 71.2548736,10.7783394 71.4801444,10.5270758 C71.53213,10.4577617 71.5927798,10.4057762 71.6534296,10.3364621 L71.7054152,10.2758123 L72.233935,9.65198556 C72.3119134,9.54801444 72.398556,9.45270758 72.4851986,9.34873646 C72.7451264,9.02527076 72.9963899,8.69602888 73.2389892,8.36101083 C73.3731698,8.17393996 73.5178042,7.99459325 73.6722022,7.82382671 L73.767509,7.72851986 C73.8678178,7.62072945 73.974894,7.51944115 74.0880866,7.42527076 L74.1747292,7.36462094 C74.292496,7.27239969 74.4203987,7.19391395 74.5559567,7.13068592 C74.713609,7.06069127 74.879582,7.01119054 75.0498195,6.9833935 C75.2311217,6.9616886 75.4143657,6.9616886 75.5956679,6.9833935 L75.7949458,6.9833935 C75.9629087,7.03114911 76.1278306,7.08901642 76.2888087,7.1566787 C76.9039711,7.34729242 77.5104693,7.55523466 78.1083032,7.77184116 Z" id="路径" fill="url(#linearGradient-16)"></path>
                    <path d="M1.23032491,71.965343 C0.465337866,71.5291394 0.0277287829,70.6844521 0.112635379,69.8079422 C0.0346570397,63.4570397 -0.0606498195,57.1148014 0.0519855596,50.7465704 C0.0519855596,50.0880866 1.34296029,48.9357401 2.1833935,48.5545126 C2.51163742,48.4078114 2.83423045,48.2561114 3.15117718,48.0994558 C10.3218556,44.5552431 14.6024432,38.4745286 16.0462094,30.3595668 C16.6527076,26.9458484 16.0462094,23.332852 15.4570397,19.9624549 C15.1277978,18.1602888 15.2231047,17.033935 16.6353791,15.898917 C21.1407942,12.3292419 25.6462094,8.76245487 30.1516245,5.19855596 C30.5322127,4.86272827 30.9960293,4.63530849 31.4945848,4.5400722 C31.8536599,4.48955121 32.2193483,4.55964147 32.534296,4.73935018 L44.8115523,11.4194946 C44.4988581,11.2335849 44.1319858,11.1602104 43.7718412,11.2115523 C43.2741342,11.3143686 42.8114919,11.5441974 42.4288809,11.8787004 C37.9061372,15.4310469 33.3978339,19.0036101 28.9039711,22.5963899 C27.4830325,23.7227437 27.3963899,24.8577617 27.7169675,26.6599278 C28.3234657,29.9870036 28.9212996,33.5913357 28.3148014,37.0570397 C26.8158845,45.5220217 22.2498195,51.7862816 14.4519856,55.2519856 C13.5855596,55.6245487 12.3292419,56.7768953 12.3205776,57.4440433 C12.2079422,63.8122744 12.3205776,70.1631769 12.3812274,76.5054152 C12.3094896,77.3769226 12.7485869,78.2112074 13.5075812,78.6454874 L1.23032491,71.965343 Z" id="路径" fill="url(#linearGradient-17)"></path>
                    <g transform="translate(0.000000, 4.332130)" id="路径">
                        <path d="M2.72924188,43.9711191 L2.1833935,44.2137184 L2.13140794,44.2137184 C1.93951026,44.311114 1.75426801,44.4211016 1.57689531,44.5429603 C1.36607847,44.6867636 1.16624929,44.8460477 0.979061372,45.0194946 C0.829811794,45.1470781 0.690760363,45.2861295 0.563176895,45.4353791 C0.476549281,45.5317154 0.395548429,45.6329664 0.320577617,45.7386282 L0.181949458,45.9552347 C0.149090856,46.0127062 0.122927358,46.0737544 0.103971119,46.1371841 C0.0710122793,46.2138944 0.0533531862,46.2963035 0.0519855596,46.3797834 C-0.0606498195,52.7566787 0.0519855596,59.098917 0.112635379,65.4411552 C0.0277287829,66.3176651 0.465337866,67.1623524 1.23032491,67.598556 L13.5075812,74.2787004 C12.7458873,73.8393415 12.3094621,72.9969394 12.3898917,72.1212996 C12.3119134,65.7703971 12.2166065,59.4194946 12.3292419,53.0599278 C12.331019,52.9773046 12.3456341,52.8954603 12.3725632,52.8173285 C12.3978899,52.7550493 12.4268197,52.6942967 12.4592058,52.6353791 C12.4991976,52.5593813 12.5455738,52.4869186 12.5978339,52.4187726 C12.670316,52.3135663 12.7484073,52.2123369 12.831769,52.1155235 C12.9644812,51.9654689 13.1062631,51.823687 13.2563177,51.6909747 C13.4445692,51.5250355 13.641218,51.3688732 13.8454874,51.2231047 C14.0229008,51.0965996 14.2113945,50.9864032 14.4086643,50.8938628 L14.4606498,50.8938628 L14.9978339,50.6512635 L2.72924188,43.9711191 Z" fill="url(#linearGradient-18)"></path>
                        <path d="M27.7256318,22.3364621 C27.4918337,21.4858082 27.4918337,20.587838 27.7256318,19.7371841 L15.4743682,13.0830325 C15.2362048,13.9330919 15.2362048,14.8322511 15.4743682,15.6823105 C16.0722022,19.0180505 16.6700361,22.6137184 16.0635379,26.0794224 C15.7774744,27.7589382 15.3395773,29.4090271 14.7552347,31.0093863 C14.3540341,32.0946155 13.8792863,33.1512188 13.334296,34.1718412 C12.5233097,35.6813097 11.5437665,37.0939447 10.4144404,38.3826715 C9.86739463,39.006554 9.28903316,39.6022663 8.68158845,40.167509 C7.95992784,40.8119934 7.19889278,41.410983 6.40288809,41.9610108 C5.25754887,42.749443 4.04911854,43.4420445 2.7898917,44.031769 L15.0584838,50.7119134 C16.3197416,50.1207843 17.5309384,49.4282578 18.6801444,48.6411552 C19.4735059,48.0881465 20.2316524,47.4862592 20.9501805,46.8389892 C21.5616466,46.2778682 22.1402255,45.6819319 22.6830325,45.0541516 C23.2221075,44.4402615 23.7282339,43.798204 24.199278,43.1306859 C24.7116901,42.3994731 25.1803795,41.6385762 25.6028881,40.8519856 C26.1494726,39.8291633 26.6242642,38.7695674 27.0238267,37.6808664 C27.6041658,36.0822131 28.0419727,34.4353635 28.33213,32.7595668 C28.9212996,29.2851986 28.3234657,25.6635379 27.7256318,22.3364621 Z" fill="url(#linearGradient-19)"></path>
                        <path d="M16.3841155,11.800722 C16.2628151,11.9074679 16.1498507,12.0233288 16.0462094,12.1472924 C15.9631017,12.2382847 15.8850078,12.3337327 15.8122744,12.433213 C15.7454115,12.527432 15.6846379,12.6258274 15.6303249,12.7277978 C15.5695627,12.842159 15.517432,12.9609012 15.4743682,13.0830325 L27.7256318,19.7631769 C27.7686955,19.6410456 27.8208262,19.5223034 27.8815884,19.4079422 C27.9339081,19.30484 27.9947706,19.2063007 28.0635379,19.1133574 C28.1361257,19.0109998 28.214219,18.91266 28.2974729,18.8187726 C28.4012766,18.6976388 28.5142453,18.5846701 28.6353791,18.4808664 L16.3841155,11.800722 Z" fill="url(#linearGradient-20)"></path>
                        <path d="M28.6613718,18.4808664 L16.3841155,11.800722 L16.6267148,11.5927798 C21.1379061,8.00577617 25.6462094,4.43032491 30.1516245,0.866425993 L30.4028881,0.684476534 L42.6801444,7.35595668 L42.4288809,7.5465704 C37.9061372,11.098917 33.3978339,14.6714801 28.9039711,18.2642599 L28.6613718,18.4722022" fill="url(#linearGradient-21)"></path>
                        <path d="M42.6801444,7.36462094 L30.4028881,0.693140794 C30.5600162,0.582896704 30.725088,0.484432827 30.8967509,0.398555957 L43.1740072,7.07870036 C43.0021222,7.16086917 42.8369887,7.25647273 42.6801444,7.36462094" fill="url(#linearGradient-22)"></path>
                        <path d="M43.1740072,7.07870036 L30.8967509,0.398555957 C31.0860073,0.308863655 31.2874499,0.247555049 31.4945848,0.216606498 C31.7002793,0.173367412 31.9127171,0.173367412 32.1184116,0.216606498 L44.3870036,6.93140794 C44.1838107,6.89233616 43.9750341,6.89233616 43.7718412,6.93140794 C43.5643676,6.96559168 43.362977,7.02980318 43.1740072,7.12202166" fill="url(#linearGradient-23)"></path>
                        <path d="M44.3870036,6.93140794 L32.1184116,0.259927798 C32.234943,0.288552382 32.348186,0.329203716 32.4563177,0.381227437 L44.733574,7.06137184 C44.6216089,7.00909706 44.5057333,6.96564372 44.3870036,6.93140794" fill="url(#linearGradient-24)"></path>
                        <polyline fill="url(#linearGradient-25)" points="44.733574 7.05270758 32.4563177 0.372563177 32.534296 0.372563177 44.8115523 7.05270758 44.733574 7.05270758"></polyline>
                    </g>
                    <path d="M106.041877,44.2483755 C106.908303,50.6512635 107.133574,57.1754513 105.669314,63.8469314 C105.348073,64.9343293 104.630842,65.861784 103.659206,66.4462094 C93.9898917,71.0729242 88.2281588,82.6310469 90.6628159,93.0108303 C91.0969089,94.4267539 90.6553322,95.9654792 89.5364621,96.9357401 C85.4002201,101.345468 80.6142726,105.09709 75.3444043,108.06065 C74.8833545,108.350009 74.3719019,108.549887 73.8368231,108.649819 C73.0623505,108.72885 72.2974345,108.428693 71.7833935,107.844043 C68.4295921,104.753082 63.8467986,103.36484 59.3415162,104.07509 C54.437617,104.856029 50.0045204,107.446639 46.9169675,111.33574 C46.3498573,112.183026 45.4777707,112.7789 44.4823105,112.999278 C43.9664847,113.061835 43.4432258,113.011579 42.9487365,112.851986 C37.7883973,111.474776 32.9703844,109.040691 28.8,105.703971 C28.3270835,105.221744 27.927189,104.672983 27.6129964,104.07509 C29.0599278,98.0101083 28.8866426,92.8115523 26.5906137,88.0462094 C24.1299639,82.9602888 20.3263538,79.8064982 14.86787,79.0700361 C13.3429603,78.8620939 12.4072202,78.2036101 12.3898917,76.5140794 C12.3119134,70.1631769 12.2166065,63.8122744 12.3292419,57.4527076 C12.3292419,56.7855596 13.6202166,55.633213 14.4606498,55.2606498 C22.2151625,51.7949458 26.8158845,45.5306859 28.3234657,37.065704 C28.9299639,33.6519856 28.3234657,30.0303249 27.7256318,26.6685921 C27.4050542,24.866426 27.4916968,23.7314079 28.9126354,22.6050542 C33.4064982,19.0180505 37.9148014,15.4454874 42.4375451,11.8873646 C42.8201561,11.5528617 43.2827985,11.3230329 43.7805054,11.2202166 C44.5350773,11.174431 45.2606767,11.5176199 45.7039711,12.1299639 C49.1065421,16.1022697 54.3015586,18.0626533 59.4801444,17.3285199 C64.4447653,16.6267148 69.4093863,13.5855596 73.2216606,8.35234657 C73.6102889,7.66378829 74.2652029,7.16555229 75.032491,6.97472924 C75.4576336,6.93392932 75.8865462,6.98717364 76.2888087,7.13068592 C81.5346403,8.74742457 86.4102732,11.3825039 90.6368231,14.8851986 C91.867148,15.9075812 91.3819495,17.033935 91.0267148,18.298917 C88.4274368,27.7516245 92.1184116,37.6028881 99.7429603,41.26787 C101.111913,41.9176895 102.749458,42.0043321 104.170397,42.5761733 C104.924188,42.9054152 105.937906,43.5292419 106.041877,44.2483755 Z M59.2548736,82.6137184 C70.899639,80.9501805 80.0490975,69.4960289 80.0490975,56.6729242 C80.0490975,44.4216606 70.7176895,35.8787004 59.133574,37.4815884 L58.5790614,37.5509025 C47.2115523,39.1451264 38.0880866,51.1277978 38.1920578,62.9371841 C38.2960289,75.5090253 47.5581227,84.2512635 59.2288809,82.6137184" id="形状" fill="url(#linearGradient-26)"></path>
                </g>
                <path d="M202.743682,91.8411552 C202.873646,92.4736462 202.743682,95.3068592 202.743682,97.0397112 C202.743682,98.9805054 197.61444,99.3617329 195.812274,100.505415 C193.741516,101.813718 191.904693,105.357401 190.613718,107.436823 C189.452708,109.316968 187.54657,114.810108 188.01444,116.967509 C188.404332,118.787004 193.212996,123.032491 193.212996,123.032491 L207.075812,130.830325 L220.072202,123.032491 C220.072202,123.032491 224.72491,119.757401 225.270758,117.833935 C226.050542,115.096029 224.404332,109.169675 223.537906,107.436823 C221.805054,103.971119 217.472924,98.7725632 217.472924,98.7725632 C217.472924,98.7725632 209.67509,99.032491 209.67509,97.0397112 L209.67509,91.8411552" id="路径" fill="#444444"></path>
                <path d="M201.01083,88.0722022 C201.01083,88.0722022 201.270758,92.4043321 202.631047,93.7386282 C203.220217,94.3277978 205.039711,96.1732852 205.87148,96.1732852 C208.306137,96.1732852 209.077256,94.700361 209.926354,93.7386282 C210.931372,92.62608 211.505961,91.1911438 211.54657,89.6924188 C211.54657,88.2628159 212.352347,83.2115523 212.352347,83.2115523 L204.251264,82.3971119 L201.01083,84.0433213 L201.01083,88.0722022 Z" id="路径" fill="url(#linearGradient-27)"></path>
                <path d="M212.352347,83.1768953 C212.478909,83.9806076 212.478909,84.7991758 212.352347,85.6028881 C212.109747,87.3877256 211.54657,89.6577617 211.54657,89.6577617 C211.54657,89.6577617 210.827437,85.2476534 209.926354,84.7971119 C208.722022,84.199278 209.111913,85.6028881 207.491697,85.6028881 C205.583671,85.4933061 203.688208,85.2237679 201.825271,84.7971119 C201.184116,84.7971119 201.01083,85.6635379 201.01083,86.4173285 L201.01083,91.2779783 C201.01083,91.2779783 198.576173,89.7357401 198.576173,85.6028881 C198.576173,82.3624549 200.19639,81.5566787 201.01083,80.7422383 C201.825271,79.9277978 203.844043,79.9364602 205.87148,79.9364602 C206.408664,79.9364602 209.241877,79.9971119 210.73213,80.7422383 C211.619047,81.2602016 212.217022,82.1587618 212.352347,83.1768953 L212.352347,83.1768953 Z" id="路径" fill="url(#linearGradient-28)"></path>
                <path d="M202.743682,97.0397112 C202.743682,97.0397112 197.181227,98.1314079 195.812274,98.7725632 C192.745126,100.21083 188.880866,107.436823 188.880866,107.436823 L195.812274,110.036101 C195.126244,111.730911 194.547484,113.467191 194.079422,115.234657 C193.750181,117.288087 194.122744,123.543682 194.122744,123.543682 L207.075812,129.963899 L218.33935,126.498195 L220.938628,120.433213 C220.776983,118.395418 220.487605,116.369775 220.072202,114.368231 C219.568735,113.177385 218.989947,112.019808 218.33935,110.902527 C218.33935,110.902527 220.21083,109.576895 220.938628,109.169675 C221.805054,108.684477 224.404332,107.436823 224.404332,107.436823 C224.404332,107.436823 219.916245,100.228159 217.472924,98.7725632 C215.601444,97.6548736 209.67509,97.0397112 209.67509,97.0397112 C209.67509,97.0397112 210.541516,102.238267 206.209386,102.238267 C201.877256,102.238267 202.743682,97.0397112 202.743682,97.0397112 Z" id="路径" fill="url(#linearGradient-29)"></path>
                <path d="M192.34657,115.451264 L192.34657,128.880866 C192.317391,129.139467 192.392368,129.399044 192.55494,129.602258 C192.717511,129.805472 192.954298,129.935601 193.212996,129.963899 L220.938628,129.963899 C221.197326,129.935601 221.434114,129.805472 221.596685,129.602258 C221.759256,129.399044 221.834234,129.139467 221.805054,128.880866 L221.805054,115.451264 C221.834234,115.192663 221.759256,114.933086 221.596685,114.729872 C221.434114,114.526658 221.197326,114.396529 220.938628,114.368231 L193.212996,114.368231 C192.954298,114.396529 192.717511,114.526658 192.55494,114.729872 C192.392368,114.933086 192.317391,115.192663 192.34657,115.451264 L192.34657,115.451264 Z" id="路径" fill="#1D1D1D"></path>
                <path d="M194.079422,138.628159 C194.079422,138.628159 224.023105,134.382671 233.068592,129.322744 C234.32491,128.620939 237.929242,126.454874 236.534296,123.127798 C234.801444,118.986282 230.469314,120.779783 228.736462,121.05704 C219.301083,122.547292 192.901083,133.187004 192.901083,133.187004 L194.079422,138.628159 Z" id="路径" fill="url(#linearGradient-30)"></path>
                <path d="M177.617329,124.33213 C177.617329,127.26065 182.859206,130.293141 185.415162,131.046931 C193.672202,133.472924 220.072202,137.761733 220.072202,137.761733 L220.938628,133.923466 C220.938628,133.923466 195.353069,121.394946 186.281588,120.493863 C183.959567,120.268592 177.617329,120.493863 177.617329,124.33213 Z" id="路径" fill="url(#linearGradient-31)"></path>
                <path d="M180.216606,136.288809 C180.216606,134.711913 181.87148,134.252708 182.659928,133.923466 C185.033935,132.953069 192.970397,133.715523 192.970397,133.715523 L194.079422,137.85704 C194.079422,137.85704 185.415162,139.347292 182.659928,138.645487 C181.828159,138.437545 180.216606,137.85704 180.216606,136.288809 Z" id="路径" fill="url(#linearGradient-32)"></path>
                <path d="M220.86065,133.940794 C220.86065,133.940794 228.788448,132.797112 231.067148,133.940794 C232.644043,134.720578 233.432491,135.45704 233.432491,136.297473 C233.516426,137.347497 232.861497,138.315496 231.855596,138.628159 C229.048375,139.598556 220.072202,137.051264 220.072202,137.051264 L220.86065,133.940794 Z" id="路径" fill="url(#linearGradient-33)"></path>
                <circle id="椭圆形" fill="url(#linearGradient-34)" opacity="0.49" cx="206.642599" cy="121.732852" r="1.29963899"></circle>
                <circle id="椭圆形" fill="url(#linearGradient-35)" opacity="0.84" cx="249.158123" cy="54.5241877" r="12.5025271"></circle>
                <circle id="椭圆形" fill="url(#linearGradient-36)" opacity="0.66" cx="100.938628" cy="131.142238" r="6.93140794"></circle>
            </g>
        </g>
    </g>
</svg>